<?xml version="1.0" encoding="iso-8859-1"?>
<!-- Generator: Adobe Illustrator 19.1.0, SVG Export Plug-In . SVG Version: 6.00 Build 0)  -->
<svg version="1.1" id="Layer_1" xmlns="http://www.w3.org/2000/svg" xmlns:xlink="http://www.w3.org/1999/xlink" x="0px" y="0px"
	 viewBox="0 0 114.676 102.221" style="enable-background:new 0 0 114.676 102.221;" xml:space="preserve">
<path d="M51,0C22.878,0,0,22.878,0,51s22.878,51,51,51c28.121,0,51-22.879,51-51S79.121,0,51,0z M100,51
	c0,1.695-0.087,3.37-0.256,5.021l-8.661-1.07c0.127-1.3,0.196-2.618,0.196-3.951c0-1.259-0.066-2.503-0.179-3.732l8.665-1.033
	C99.917,47.803,100,49.392,100,51z M2,51c0-1.666,0.085-3.312,0.248-4.935l8.662,1.057c-0.123,1.277-0.19,2.569-0.19,3.878
	c0,1.306,0.068,2.597,0.19,3.871l-8.663,1.046C2.085,54.3,2,52.66,2,51z M89.051,37.813l8.164-3.075
	c1.075,3.045,1.854,6.226,2.309,9.51l-8.658,1.032C90.498,42.705,89.884,40.209,89.051,37.813z M89.279,51
	c0,2.55-0.256,5.04-0.734,7.452l-8.581-1.982c0.334-1.774,0.517-3.6,0.517-5.47c0-1.945-0.194-3.844-0.555-5.684l8.589-1.936
	C89.015,45.844,89.279,48.391,89.279,51z M51,78.482c-15.154,0-27.482-12.328-27.482-27.482S35.846,23.518,51,23.518
	c15.153,0,27.481,12.328,27.481,27.482S66.153,78.482,51,78.482z M51.933,89.256l0.016-8.798c3.887-0.124,7.584-1.001,10.954-2.495
	l3.801,7.934C62.176,87.942,57.185,89.129,51.933,89.256z M35.175,85.842l3.829-7.921c3.365,1.505,7.059,2.397,10.944,2.534
	l-0.016,8.797C44.683,89.108,39.696,87.903,35.175,85.842z M12.72,51c0-2.655,0.273-5.247,0.79-7.751l8.582,1.965
	c-0.374,1.872-0.573,3.805-0.573,5.785c0,1.834,0.177,3.626,0.499,5.368l-8.587,1.95C12.969,55.948,12.72,53.503,12.72,51z
	 M50,12.746v8.798c-3.828,0.128-7.472,0.987-10.798,2.446l-3.815-7.927C39.871,14.051,44.807,12.88,50,12.746z M66.734,16.117
	l-3.843,7.914c-3.351-1.484-7.027-2.358-10.891-2.488v-8.798C57.239,12.881,62.218,14.072,66.734,16.117z M88.348,35.941
	c-0.969-2.395-2.162-4.675-3.553-6.816l7.188-4.937c1.784,2.718,3.302,5.623,4.525,8.679L88.348,35.941z M88.068,41.431
	l-8.594,1.937c-0.982-3.66-2.648-7.044-4.859-9.999l6.89-5.461C84.522,31.884,86.785,36.461,88.068,41.431z M73.357,31.814
	c-2.419-2.814-5.356-5.168-8.665-6.912l3.842-7.913c4.498,2.329,8.479,5.519,11.719,9.358L73.357,31.814z M70.797,15.942L74.87,8.23
	c2.866,1.606,5.553,3.493,8.028,5.621l-5.795,6.509C75.152,18.695,73.042,17.215,70.797,15.942z M69.034,14.999
	c-2.282-1.148-4.686-2.083-7.189-2.784l2.111-8.464c3.192,0.876,6.252,2.068,9.149,3.539L69.034,14.999z M59.906,11.725
	c-2.51-0.569-5.106-0.901-7.768-0.976v-8.72c3.388,0.078,6.691,0.5,9.878,1.235L59.906,11.725z M50.138,10.742
	c-2.627,0.056-5.192,0.359-7.673,0.897l-2.086-8.466c3.151-0.699,6.414-1.093,9.759-1.151V10.742z M40.521,12.111
	c-2.518,0.679-4.939,1.594-7.237,2.725l-4.049-7.719c2.915-1.452,5.992-2.624,9.2-3.476L40.521,12.111z M31.512,15.764
	c-2.267,1.259-4.4,2.729-6.374,4.386l-5.776-6.525c2.499-2.119,5.208-3.996,8.098-5.586L31.512,15.764z M33.585,16.929l3.815,7.927
	c-3.316,1.732-6.261,4.075-8.689,6.881l-6.876-5.489C25.087,22.42,29.077,19.242,33.585,16.929z M20.577,27.803l6.871,5.485
	c-2.222,2.947-3.9,6.324-4.895,9.981l-8.586-1.966C15.269,36.339,17.546,31.769,20.577,27.803z M13.729,35.745l-8.15-3.096
	c1.244-3.068,2.786-5.985,4.597-8.709l7.174,4.957C15.934,31.046,14.718,33.337,13.729,35.745z M13.016,37.614
	c-0.852,2.412-1.484,4.926-1.864,7.523L2.498,44.08c0.469-3.305,1.266-6.504,2.363-9.564L13.016,37.614z M11.151,56.858
	c0.38,2.595,1.011,5.109,1.862,7.52l-8.159,3.086c-1.095-3.059-1.89-6.258-2.358-9.561L11.151,56.858z M13.726,66.247
	c0.988,2.407,2.202,4.696,3.617,6.844l-7.181,4.947c-1.809-2.724-3.348-5.639-4.591-8.706L13.726,66.247z M13.862,60.273
	l8.578-1.948c0.949,3.698,2.602,7.115,4.802,10.106l-6.89,5.48C17.345,69.899,15.112,65.278,13.862,60.273z M28.481,69.999
	c2.424,2.869,5.383,5.269,8.725,7.046l-3.829,7.92c-4.531-2.361-8.537-5.595-11.783-9.488L28.481,69.999z M31.483,86.22
	l-4.063,7.719c-2.886-1.591-5.59-3.468-8.085-5.586l5.786-6.517C27.091,83.491,29.22,84.961,31.483,86.22z M33.254,87.149
	c2.294,1.131,4.711,2.047,7.224,2.728l-2.099,8.468c-3.203-0.855-6.275-2.028-9.186-3.482L33.254,87.149z M42.422,90.351
	c2.477,0.54,5.038,0.846,7.661,0.905l-0.012,8.72c-3.341-0.063-6.599-0.46-9.746-1.162L42.422,90.351z M52.082,91.252
	c2.619-0.07,5.176-0.388,7.648-0.936l2.074,8.47c-3.143,0.71-6.397,1.116-9.734,1.188L52.082,91.252z M61.672,89.834
	c2.502-0.689,4.908-1.611,7.191-2.746l4.039,7.725c-2.901,1.456-5.963,2.634-9.155,3.495L61.672,89.834z M70.631,86.154
	c2.248-1.26,4.363-2.728,6.319-4.381l5.767,6.533c-2.482,2.114-5.174,3.987-8.045,5.578L70.631,86.154z M68.502,85.027l-3.801-7.934
	c3.348-1.765,6.316-4.155,8.75-7.015l6.867,5.501C77.058,79.459,73.043,82.682,68.502,85.027z M81.565,74.015l-6.867-5.501
	c2.211-2.984,3.874-6.397,4.836-10.091l8.574,1.98C86.84,65.403,84.586,70.014,81.565,74.015z M88.268,66.26l8.146,3.107
	c-1.237,3.047-2.768,5.944-4.565,8.652l-7.169-4.967C86.083,70.919,87.287,68.648,88.268,66.26z M88.982,64.391
	c0.846-2.391,1.475-4.883,1.857-7.455l8.653,1.069c-0.472,3.281-1.267,6.457-2.358,9.496L88.982,64.391z M90.85,22.54l-7.185,4.935
	c-1.506-2.085-3.205-4.02-5.073-5.779l5.798-6.512C86.779,17.412,88.942,19.877,90.85,22.54z M17.859,14.946l5.78,6.529
	c-1.894,1.757-3.619,3.692-5.148,5.78l-7.171-4.954C13.253,19.636,15.442,17.17,17.859,14.946z M11.305,79.678l7.178-4.944
	c1.527,2.087,3.249,4.02,5.14,5.776l-5.789,6.521C15.42,84.806,13.235,82.341,11.305,79.678z M84.217,86.982l-5.771-6.538
	c1.875-1.749,3.582-3.673,5.097-5.747l7.164,4.964C88.788,82.312,86.615,84.766,84.217,86.982z"/>
<g>
	<path d="M102.32,96.379h4.706v1.057h-1.729v4.785h-1.264v-4.785h-1.713V96.379z M114.676,96.379v5.842h-1.264v-4.417l-1.665,4.417
		h-0.912l-1.681-4.386v4.386h-1.153v-5.842h1.841l1.489,3.922l1.488-3.922H114.676z"/>
</g>
</svg>
